<svg width="375" height="667" viewBox="0 0 375 667" fill="none" xmlns="http://www.w3.org/2000/svg">
<rect width="375" height="667" fill="white"/>
<rect x="330.722" y="30.6006" width="25" height="3" transform="rotate(45 330.722 30.6006)" fill="#0056EC"/>
<rect x="348.4" y="32.7219" width="25" height="3" transform="rotate(135 348.4 32.7219)" fill="#0056EC"/>
<path d="M166.708 209.693C166.708 209.059 166.444 208.575 165.917 208.243C165.399 207.911 164.535 207.618 163.324 207.364C162.113 207.11 161.103 206.788 160.292 206.397C158.515 205.538 157.626 204.293 157.626 202.662C157.626 201.295 158.202 200.152 159.354 199.234C160.507 198.316 161.972 197.857 163.749 197.857C165.644 197.857 167.172 198.326 168.334 199.264C169.506 200.201 170.092 201.417 170.092 202.911H166.532C166.532 202.228 166.278 201.661 165.771 201.212C165.263 200.753 164.589 200.523 163.749 200.523C162.968 200.523 162.328 200.704 161.83 201.065C161.342 201.427 161.098 201.91 161.098 202.516C161.098 203.062 161.327 203.487 161.786 203.79C162.245 204.093 163.173 204.4 164.569 204.713C165.966 205.016 167.06 205.382 167.851 205.812C168.651 206.231 169.242 206.739 169.623 207.335C170.014 207.931 170.209 208.653 170.209 209.503C170.209 210.929 169.618 212.086 168.437 212.975C167.255 213.854 165.707 214.293 163.793 214.293C162.494 214.293 161.337 214.059 160.321 213.59C159.306 213.121 158.515 212.477 157.948 211.656C157.382 210.836 157.099 209.952 157.099 209.005H160.556C160.604 209.845 160.922 210.494 161.508 210.953C162.094 211.402 162.87 211.627 163.837 211.627C164.774 211.627 165.487 211.451 165.976 211.1C166.464 210.738 166.708 210.27 166.708 209.693ZM177.782 194.298V198.15H180.58V200.787H177.782V209.635C177.782 210.24 177.899 210.68 178.134 210.953C178.378 211.217 178.808 211.349 179.423 211.349C179.833 211.349 180.248 211.3 180.668 211.202V213.956C179.857 214.181 179.076 214.293 178.324 214.293C175.59 214.293 174.223 212.784 174.223 209.767V200.787H171.615V198.15H174.223V194.298H177.782ZM192.782 214C192.626 213.697 192.489 213.204 192.372 212.521C191.239 213.702 189.853 214.293 188.212 214.293C186.62 214.293 185.321 213.839 184.315 212.931C183.31 212.022 182.807 210.899 182.807 209.562C182.807 207.872 183.432 206.578 184.682 205.68C185.941 204.771 187.738 204.317 190.072 204.317H192.255V203.277C192.255 202.457 192.025 201.803 191.566 201.314C191.107 200.816 190.409 200.567 189.472 200.567C188.661 200.567 187.997 200.772 187.479 201.183C186.962 201.583 186.703 202.096 186.703 202.721H183.144C183.144 201.852 183.432 201.041 184.008 200.289C184.584 199.527 185.365 198.932 186.352 198.502C187.348 198.072 188.456 197.857 189.677 197.857C191.532 197.857 193.012 198.326 194.115 199.264C195.219 200.191 195.785 201.5 195.814 203.189V210.338C195.814 211.764 196.015 212.901 196.415 213.751V214H192.782ZM188.871 211.437C189.574 211.437 190.233 211.266 190.849 210.924C191.474 210.582 191.942 210.123 192.255 209.547V206.559H190.336C189.018 206.559 188.026 206.788 187.362 207.247C186.698 207.706 186.366 208.355 186.366 209.195C186.366 209.879 186.591 210.426 187.04 210.836C187.499 211.236 188.109 211.437 188.871 211.437ZM207.841 201.402C207.372 201.324 206.889 201.285 206.391 201.285C204.76 201.285 203.661 201.91 203.095 203.16V214H199.535V198.15H202.934L203.021 199.923C203.881 198.546 205.072 197.857 206.596 197.857C207.104 197.857 207.523 197.926 207.855 198.062L207.841 201.402ZM215.282 194.298V198.15H218.08V200.787H215.282V209.635C215.282 210.24 215.399 210.68 215.634 210.953C215.878 211.217 216.308 211.349 216.923 211.349C217.333 211.349 217.748 211.3 218.168 211.202V213.956C217.357 214.181 216.576 214.293 215.824 214.293C213.09 214.293 211.723 212.784 211.723 209.767V200.787H209.115V198.15H211.723V194.298H215.282Z" fill="black"/>
<path d="M141.708 269.693C141.708 269.059 141.444 268.575 140.917 268.243C140.399 267.911 139.535 267.618 138.324 267.364C137.113 267.11 136.103 266.788 135.292 266.397C133.515 265.538 132.626 264.293 132.626 262.662C132.626 261.295 133.202 260.152 134.354 259.234C135.507 258.316 136.972 257.857 138.749 257.857C140.644 257.857 142.172 258.326 143.334 259.264C144.506 260.201 145.092 261.417 145.092 262.911H141.532C141.532 262.228 141.278 261.661 140.771 261.212C140.263 260.753 139.589 260.523 138.749 260.523C137.968 260.523 137.328 260.704 136.83 261.065C136.342 261.427 136.098 261.91 136.098 262.516C136.098 263.062 136.327 263.487 136.786 263.79C137.245 264.093 138.173 264.4 139.569 264.713C140.966 265.016 142.06 265.382 142.851 265.812C143.651 266.231 144.242 266.739 144.623 267.335C145.014 267.931 145.209 268.653 145.209 269.503C145.209 270.929 144.618 272.086 143.437 272.975C142.255 273.854 140.707 274.293 138.793 274.293C137.494 274.293 136.337 274.059 135.321 273.59C134.306 273.121 133.515 272.477 132.948 271.656C132.382 270.836 132.099 269.952 132.099 269.005H135.556C135.604 269.845 135.922 270.494 136.508 270.953C137.094 271.402 137.87 271.627 138.837 271.627C139.774 271.627 140.487 271.451 140.976 271.1C141.464 270.738 141.708 270.27 141.708 269.693ZM155.302 274.293C153.046 274.293 151.215 273.585 149.809 272.169C148.412 270.743 147.714 268.849 147.714 266.485V266.046C147.714 264.464 148.017 263.053 148.622 261.812C149.237 260.562 150.097 259.591 151.2 258.897C152.304 258.204 153.534 257.857 154.892 257.857C157.05 257.857 158.715 258.546 159.887 259.923C161.068 261.3 161.659 263.248 161.659 265.768V267.203H151.303C151.41 268.512 151.845 269.547 152.606 270.309C153.378 271.07 154.345 271.451 155.507 271.451C157.138 271.451 158.466 270.792 159.491 269.474L161.41 271.305C160.775 272.252 159.926 272.989 158.861 273.517C157.807 274.034 156.62 274.293 155.302 274.293ZM154.877 260.714C153.9 260.714 153.109 261.056 152.504 261.739C151.908 262.423 151.527 263.375 151.361 264.596H158.144V264.332C158.065 263.141 157.748 262.242 157.191 261.637C156.635 261.021 155.863 260.714 154.877 260.714ZM172.733 261.402C172.265 261.324 171.781 261.285 171.283 261.285C169.652 261.285 168.554 261.91 167.987 263.16V274H164.428V258.15H167.826L167.914 259.923C168.773 258.546 169.965 257.857 171.488 257.857C171.996 257.857 172.416 257.926 172.748 258.062L172.733 261.402ZM180.834 269.488L184.188 258.15H187.865L182.372 274H179.281L173.744 258.15H177.436L180.834 269.488ZM193.886 274H190.326V258.15H193.886V274ZM190.106 254.034C190.106 253.487 190.277 253.033 190.619 252.672C190.971 252.311 191.469 252.13 192.113 252.13C192.758 252.13 193.256 252.311 193.607 252.672C193.959 253.033 194.135 253.487 194.135 254.034C194.135 254.571 193.959 255.021 193.607 255.382C193.256 255.733 192.758 255.909 192.113 255.909C191.469 255.909 190.971 255.733 190.619 255.382C190.277 255.021 190.106 254.571 190.106 254.034ZM204.286 271.451C205.175 271.451 205.912 271.192 206.498 270.675C207.084 270.157 207.396 269.518 207.436 268.756H210.79C210.751 269.742 210.443 270.665 209.867 271.524C209.291 272.374 208.51 273.048 207.523 273.546C206.537 274.044 205.473 274.293 204.33 274.293C202.113 274.293 200.355 273.575 199.057 272.14C197.758 270.704 197.108 268.722 197.108 266.192V265.826C197.108 263.414 197.753 261.485 199.042 260.04C200.331 258.585 202.089 257.857 204.315 257.857C206.2 257.857 207.733 258.409 208.915 259.513C210.106 260.606 210.731 262.047 210.79 263.834H207.436C207.396 262.926 207.084 262.179 206.498 261.593C205.922 261.007 205.185 260.714 204.286 260.714C203.134 260.714 202.245 261.134 201.62 261.974C200.995 262.804 200.678 264.068 200.668 265.768V266.339C200.668 268.058 200.976 269.342 201.591 270.191C202.216 271.031 203.114 271.451 204.286 271.451ZM220.458 274.293C218.202 274.293 216.371 273.585 214.965 272.169C213.568 270.743 212.87 268.849 212.87 266.485V266.046C212.87 264.464 213.173 263.053 213.778 261.812C214.394 260.562 215.253 259.591 216.356 258.897C217.46 258.204 218.69 257.857 220.048 257.857C222.206 257.857 223.871 258.546 225.043 259.923C226.225 261.3 226.815 263.248 226.815 265.768V267.203H216.459C216.566 268.512 217.001 269.547 217.763 270.309C218.534 271.07 219.501 271.451 220.663 271.451C222.294 271.451 223.622 270.792 224.647 269.474L226.566 271.305C225.932 272.252 225.082 272.989 224.018 273.517C222.963 274.034 221.776 274.293 220.458 274.293ZM220.033 260.714C219.057 260.714 218.266 261.056 217.66 261.739C217.064 262.423 216.684 263.375 216.518 264.596H223.3V264.332C223.222 263.141 222.904 262.242 222.348 261.637C221.791 261.021 221.02 260.714 220.033 260.714ZM238.476 269.693C238.476 269.059 238.212 268.575 237.685 268.243C237.167 267.911 236.303 267.618 235.092 267.364C233.881 267.11 232.87 266.788 232.06 266.397C230.282 265.538 229.394 264.293 229.394 262.662C229.394 261.295 229.97 260.152 231.122 259.234C232.274 258.316 233.739 257.857 235.517 257.857C237.411 257.857 238.939 258.326 240.102 259.264C241.273 260.201 241.859 261.417 241.859 262.911H238.3C238.3 262.228 238.046 261.661 237.538 261.212C237.03 260.753 236.356 260.523 235.517 260.523C234.735 260.523 234.096 260.704 233.598 261.065C233.109 261.427 232.865 261.91 232.865 262.516C232.865 263.062 233.095 263.487 233.554 263.79C234.013 264.093 234.94 264.4 236.337 264.713C237.733 265.016 238.827 265.382 239.618 265.812C240.419 266.231 241.01 266.739 241.391 267.335C241.781 267.931 241.977 268.653 241.977 269.503C241.977 270.929 241.386 272.086 240.204 272.975C239.022 273.854 237.475 274.293 235.561 274.293C234.262 274.293 233.104 274.059 232.089 273.59C231.073 273.121 230.282 272.477 229.716 271.656C229.149 270.836 228.866 269.952 228.866 269.005H232.323C232.372 269.845 232.689 270.494 233.275 270.953C233.861 271.402 234.638 271.627 235.604 271.627C236.542 271.627 237.255 271.451 237.743 271.1C238.231 270.738 238.476 270.27 238.476 269.693Z" fill="black"/>
<path d="M158.294 334C158.138 333.697 158.001 333.204 157.884 332.521C156.751 333.702 155.364 334.293 153.724 334.293C152.132 334.293 150.833 333.839 149.827 332.931C148.821 332.022 148.318 330.899 148.318 329.562C148.318 327.872 148.943 326.578 150.193 325.68C151.453 324.771 153.25 324.317 155.584 324.317H157.767V323.277C157.767 322.457 157.537 321.803 157.078 321.314C156.619 320.816 155.921 320.567 154.983 320.567C154.173 320.567 153.509 320.772 152.991 321.183C152.474 321.583 152.215 322.096 152.215 322.721H148.655C148.655 321.852 148.943 321.041 149.52 320.289C150.096 319.527 150.877 318.932 151.863 318.502C152.859 318.072 153.968 317.857 155.188 317.857C157.044 317.857 158.523 318.326 159.627 319.264C160.73 320.191 161.297 321.5 161.326 323.189V330.338C161.326 331.764 161.526 332.901 161.927 333.751V334H158.294ZM154.383 331.437C155.086 331.437 155.745 331.266 156.36 330.924C156.985 330.582 157.454 330.123 157.767 329.547V326.559H155.848C154.529 326.559 153.538 326.788 152.874 327.247C152.21 327.706 151.878 328.355 151.878 329.195C151.878 329.879 152.103 330.426 152.552 330.836C153.011 331.236 153.621 331.437 154.383 331.437ZM178.963 326.236C178.963 328.697 178.411 330.655 177.308 332.11C176.214 333.565 174.705 334.293 172.781 334.293C170.926 334.293 169.48 333.624 168.445 332.286L168.27 334H165.047V311.5H168.606V319.674C169.632 318.463 171.014 317.857 172.752 317.857C174.686 317.857 176.204 318.575 177.308 320.011C178.411 321.446 178.963 323.453 178.963 326.031V326.236ZM175.403 325.929C175.403 324.21 175.101 322.921 174.495 322.062C173.89 321.202 173.011 320.772 171.858 320.772C170.315 320.772 169.231 321.446 168.606 322.794V329.327C169.241 330.704 170.335 331.393 171.888 331.393C173.001 331.393 173.86 330.978 174.466 330.147C175.071 329.317 175.384 328.062 175.403 326.383V325.929ZM181.292 325.929C181.292 324.376 181.6 322.979 182.215 321.739C182.83 320.489 183.694 319.532 184.808 318.868C185.921 318.194 187.2 317.857 188.646 317.857C190.784 317.857 192.518 318.546 193.846 319.923C195.184 321.3 195.906 323.126 196.014 325.401L196.028 326.236C196.028 327.799 195.726 329.195 195.12 330.426C194.524 331.656 193.665 332.608 192.542 333.282C191.429 333.956 190.14 334.293 188.675 334.293C186.438 334.293 184.646 333.551 183.299 332.066C181.961 330.572 181.292 328.585 181.292 326.104V325.929ZM184.852 326.236C184.852 327.867 185.188 329.146 185.862 330.074C186.536 330.992 187.474 331.451 188.675 331.451C189.876 331.451 190.809 330.982 191.473 330.045C192.146 329.107 192.483 327.735 192.483 325.929C192.483 324.327 192.137 323.058 191.443 322.12C190.76 321.183 189.827 320.714 188.646 320.714C187.483 320.714 186.561 321.178 185.877 322.105C185.193 323.023 184.852 324.4 184.852 326.236ZM208.641 332.447C207.596 333.678 206.111 334.293 204.188 334.293C202.469 334.293 201.165 333.79 200.276 332.784C199.397 331.778 198.958 330.323 198.958 328.419V318.15H202.518V328.375C202.518 330.387 203.353 331.393 205.022 331.393C206.751 331.393 207.918 330.772 208.523 329.532V318.15H212.083V334H208.729L208.641 332.447ZM220.169 314.298V318.15H222.967V320.787H220.169V329.635C220.169 330.24 220.286 330.68 220.521 330.953C220.765 331.217 221.194 331.349 221.81 331.349C222.22 331.349 222.635 331.3 223.055 331.202V333.956C222.244 334.181 221.463 334.293 220.711 334.293C217.977 334.293 216.609 332.784 216.609 329.767V320.787H214.002V318.15H216.609V314.298H220.169Z" fill="black"/>
<path d="M171.732 386.236C171.732 388.697 171.181 390.655 170.077 392.11C168.983 393.565 167.475 394.293 165.551 394.293C163.695 394.293 162.25 393.624 161.215 392.286L161.039 394H157.816V371.5H161.376V379.674C162.401 378.463 163.783 377.857 165.521 377.857C167.455 377.857 168.974 378.575 170.077 380.011C171.181 381.446 171.732 383.453 171.732 386.031V386.236ZM168.173 385.929C168.173 384.21 167.87 382.921 167.265 382.062C166.659 381.202 165.78 380.772 164.628 380.772C163.085 380.772 162.001 381.446 161.376 382.794V389.327C162.011 390.704 163.104 391.393 164.657 391.393C165.771 391.393 166.63 390.978 167.235 390.147C167.841 389.317 168.153 388.062 168.173 386.383V385.929ZM178.515 394H174.955V371.5H178.515V394ZM181.737 385.929C181.737 384.376 182.045 382.979 182.66 381.739C183.275 380.489 184.14 379.532 185.253 378.868C186.366 378.194 187.646 377.857 189.091 377.857C191.229 377.857 192.963 378.546 194.291 379.923C195.629 381.3 196.352 383.126 196.459 385.401L196.474 386.236C196.474 387.799 196.171 389.195 195.565 390.426C194.97 391.656 194.11 392.608 192.987 393.282C191.874 393.956 190.585 394.293 189.12 394.293C186.884 394.293 185.092 393.551 183.744 392.066C182.406 390.572 181.737 388.585 181.737 386.104V385.929ZM185.297 386.236C185.297 387.867 185.634 389.146 186.308 390.074C186.981 390.992 187.919 391.451 189.12 391.451C190.321 391.451 191.254 390.982 191.918 390.045C192.592 389.107 192.929 387.735 192.929 385.929C192.929 384.327 192.582 383.058 191.889 382.12C191.205 381.183 190.272 380.714 189.091 380.714C187.929 380.714 187.006 381.178 186.322 382.105C185.639 383.023 185.297 384.4 185.297 386.236ZM198.861 385.958C198.861 383.497 199.438 381.534 200.59 380.069C201.752 378.595 203.29 377.857 205.204 377.857C207.011 377.857 208.432 378.487 209.467 379.747L209.628 378.15H212.836V393.517C212.836 395.597 212.187 397.237 210.888 398.438C209.599 399.64 207.855 400.24 205.658 400.24C204.496 400.24 203.358 399.996 202.245 399.508C201.142 399.029 200.302 398.399 199.726 397.618L201.41 395.479C202.504 396.778 203.852 397.428 205.453 397.428C206.635 397.428 207.567 397.105 208.251 396.461C208.935 395.826 209.276 394.889 209.276 393.648V392.579C208.251 393.722 206.884 394.293 205.175 394.293C203.319 394.293 201.801 393.556 200.619 392.081C199.447 390.606 198.861 388.565 198.861 385.958ZM202.406 386.266C202.406 387.857 202.729 389.112 203.373 390.03C204.027 390.938 204.931 391.393 206.083 391.393C207.519 391.393 208.583 390.777 209.276 389.547V382.574C208.603 381.373 207.548 380.772 206.112 380.772C204.94 380.772 204.027 381.236 203.373 382.164C202.729 383.092 202.406 384.459 202.406 386.266Z" fill="black"/>
<path d="M122.335 451.451C123.224 451.451 123.961 451.192 124.547 450.675C125.133 450.157 125.445 449.518 125.484 448.756H128.839C128.8 449.742 128.492 450.665 127.916 451.524C127.34 452.374 126.559 453.048 125.572 453.546C124.586 454.044 123.521 454.293 122.379 454.293C120.162 454.293 118.404 453.575 117.105 452.14C115.807 450.704 115.157 448.722 115.157 446.192V445.826C115.157 443.414 115.802 441.485 117.091 440.04C118.38 438.585 120.138 437.857 122.364 437.857C124.249 437.857 125.782 438.409 126.964 439.513C128.155 440.606 128.78 442.047 128.839 443.834H125.484C125.445 442.926 125.133 442.179 124.547 441.593C123.971 441.007 123.233 440.714 122.335 440.714C121.183 440.714 120.294 441.134 119.669 441.974C119.044 442.804 118.727 444.068 118.717 445.768V446.339C118.717 448.058 119.024 449.342 119.64 450.191C120.265 451.031 121.163 451.451 122.335 451.451ZM130.86 445.929C130.86 444.376 131.168 442.979 131.783 441.739C132.398 440.489 133.263 439.532 134.376 438.868C135.489 438.194 136.769 437.857 138.214 437.857C140.353 437.857 142.086 438.546 143.414 439.923C144.752 441.3 145.475 443.126 145.582 445.401L145.597 446.236C145.597 447.799 145.294 449.195 144.688 450.426C144.093 451.656 143.233 452.608 142.11 453.282C140.997 453.956 139.708 454.293 138.243 454.293C136.007 454.293 134.215 453.551 132.867 452.066C131.529 450.572 130.86 448.585 130.86 446.104V445.929ZM134.42 446.236C134.42 447.867 134.757 449.146 135.431 450.074C136.104 450.992 137.042 451.451 138.243 451.451C139.444 451.451 140.377 450.982 141.041 450.045C141.715 449.107 142.052 447.735 142.052 445.929C142.052 444.327 141.705 443.058 141.012 442.12C140.328 441.183 139.396 440.714 138.214 440.714C137.052 440.714 136.129 441.178 135.445 442.105C134.762 443.023 134.42 444.4 134.42 446.236ZM151.91 438.15L152.013 439.981C153.185 438.565 154.723 437.857 156.627 437.857C159.928 437.857 161.607 439.747 161.666 443.526V454H158.106V443.731C158.106 442.726 157.887 441.983 157.447 441.505C157.018 441.017 156.31 440.772 155.323 440.772C153.888 440.772 152.818 441.422 152.115 442.721V454H148.556V438.15H151.91ZM169.767 434.298V438.15H172.564V440.787H169.767V449.635C169.767 450.24 169.884 450.68 170.118 450.953C170.362 451.217 170.792 451.349 171.407 451.349C171.817 451.349 172.232 451.3 172.652 451.202V453.956C171.842 454.181 171.061 454.293 170.309 454.293C167.574 454.293 166.207 452.784 166.207 449.767V440.787H163.6V438.15H166.207V434.298H169.767ZM184.767 454C184.61 453.697 184.474 453.204 184.356 452.521C183.224 453.702 181.837 454.293 180.196 454.293C178.604 454.293 177.306 453.839 176.3 452.931C175.294 452.022 174.791 450.899 174.791 449.562C174.791 447.872 175.416 446.578 176.666 445.68C177.926 444.771 179.723 444.317 182.057 444.317H184.239V443.277C184.239 442.457 184.01 441.803 183.551 441.314C183.092 440.816 182.394 440.567 181.456 440.567C180.646 440.567 179.981 440.772 179.464 441.183C178.946 441.583 178.688 442.096 178.688 442.721H175.128C175.128 441.852 175.416 441.041 175.992 440.289C176.568 439.527 177.35 438.932 178.336 438.502C179.332 438.072 180.44 437.857 181.661 437.857C183.517 437.857 184.996 438.326 186.1 439.264C187.203 440.191 187.77 441.5 187.799 443.189V450.338C187.799 451.764 187.999 452.901 188.399 453.751V454H184.767ZM180.855 451.437C181.559 451.437 182.218 451.266 182.833 450.924C183.458 450.582 183.927 450.123 184.239 449.547V446.559H182.32C181.002 446.559 180.011 446.788 179.347 447.247C178.683 447.706 178.351 448.355 178.351 449.195C178.351 449.879 178.575 450.426 179.024 450.836C179.483 451.236 180.094 451.437 180.855 451.437ZM198.038 451.451C198.927 451.451 199.664 451.192 200.25 450.675C200.836 450.157 201.148 449.518 201.188 448.756H204.542C204.503 449.742 204.195 450.665 203.619 451.524C203.043 452.374 202.262 453.048 201.275 453.546C200.289 454.044 199.225 454.293 198.082 454.293C195.865 454.293 194.107 453.575 192.809 452.14C191.51 450.704 190.86 448.722 190.86 446.192V445.826C190.86 443.414 191.505 441.485 192.794 440.04C194.083 438.585 195.841 437.857 198.067 437.857C199.952 437.857 201.485 438.409 202.667 439.513C203.858 440.606 204.483 442.047 204.542 443.834H201.188C201.148 442.926 200.836 442.179 200.25 441.593C199.674 441.007 198.937 440.714 198.038 440.714C196.886 440.714 195.997 441.134 195.372 441.974C194.747 442.804 194.43 444.068 194.42 445.768V446.339C194.42 448.058 194.728 449.342 195.343 450.191C195.968 451.031 196.866 451.451 198.038 451.451ZM211.69 434.298V438.15H214.488V440.787H211.69V449.635C211.69 450.24 211.808 450.68 212.042 450.953C212.286 451.217 212.716 451.349 213.331 451.349C213.741 451.349 214.156 451.3 214.576 451.202V453.956C213.766 454.181 212.984 454.293 212.232 454.293C209.498 454.293 208.131 452.784 208.131 449.767V440.787H205.523V438.15H208.131V434.298H211.69ZM234.293 452.447C233.248 453.678 231.764 454.293 229.84 454.293C228.121 454.293 226.817 453.79 225.929 452.784C225.05 451.778 224.61 450.323 224.61 448.419V438.15H228.17V448.375C228.17 450.387 229.005 451.393 230.675 451.393C232.403 451.393 233.57 450.772 234.176 449.532V438.15H237.735V454H234.381L234.293 452.447ZM250.245 449.693C250.245 449.059 249.981 448.575 249.454 448.243C248.937 447.911 248.072 447.618 246.861 447.364C245.65 447.11 244.64 446.788 243.829 446.397C242.052 445.538 241.163 444.293 241.163 442.662C241.163 441.295 241.739 440.152 242.892 439.234C244.044 438.316 245.509 437.857 247.286 437.857C249.181 437.857 250.709 438.326 251.871 439.264C253.043 440.201 253.629 441.417 253.629 442.911H250.069C250.069 442.228 249.815 441.661 249.308 441.212C248.8 440.753 248.126 440.523 247.286 440.523C246.505 440.523 245.865 440.704 245.367 441.065C244.879 441.427 244.635 441.91 244.635 442.516C244.635 443.062 244.864 443.487 245.323 443.79C245.782 444.093 246.71 444.4 248.106 444.713C249.503 445.016 250.597 445.382 251.388 445.812C252.188 446.231 252.779 446.739 253.16 447.335C253.551 447.931 253.746 448.653 253.746 449.503C253.746 450.929 253.155 452.086 251.974 452.975C250.792 453.854 249.244 454.293 247.33 454.293C246.031 454.293 244.874 454.059 243.858 453.59C242.843 453.121 242.052 452.477 241.485 451.656C240.919 450.836 240.636 449.952 240.636 449.005H244.093C244.142 449.845 244.459 450.494 245.045 450.953C245.631 451.402 246.407 451.627 247.374 451.627C248.312 451.627 249.024 451.451 249.513 451.1C250.001 450.738 250.245 450.27 250.245 449.693Z" fill="black"/>
</svg>
